<svg width="197" height="36" viewBox="0 0 197 36" fill="none" xmlns="http://www.w3.org/2000/svg">
<path fill-rule="evenodd" clip-rule="evenodd" d="M55.6615 27.5146C56.3681 27.5146 56.9876 27.4493 57.5126 27.322C58.0358 27.194 58.5365 27.0173 59.0137 26.7904V23.7195H56.8981C56.6963 23.7195 56.5347 23.6634 56.42 23.5529C56.3028 23.4366 56.2434 23.2993 56.2434 23.136V21.3578H61.8652V28.1919C61.4341 28.5059 60.9887 28.7738 60.5274 29.0057C60.0635 29.2334 59.5696 29.4276 59.043 29.5716C58.5164 29.719 57.9504 29.832 57.3552 29.9048C56.7574 29.9785 56.1094 30.0145 55.4129 30.0145C54.183 30.0145 53.0519 29.8019 52.0155 29.374C50.9782 28.9437 50.0823 28.3501 49.3238 27.5833C48.5712 26.8247 47.9826 25.9105 47.5573 24.8523C47.132 23.7966 46.9219 22.637 46.9219 21.3829C46.9219 20.112 47.1295 18.9449 47.5414 17.8884C47.9533 16.8268 48.5385 15.9159 49.3004 15.154C50.0564 14.3905 50.9782 13.7986 52.0607 13.3783C53.1432 12.9564 54.3613 12.7471 55.7042 12.7471C57.0839 12.7471 58.2778 12.953 59.2883 13.3624C60.2971 13.771 61.1494 14.3026 61.851 14.9565L60.9401 16.3806C60.7635 16.6686 60.5274 16.8126 60.2268 16.8126C60.0376 16.8126 59.8509 16.7523 59.6575 16.6259C59.4063 16.4768 59.151 16.332 58.8923 16.1847C58.6311 16.034 58.3431 15.9067 58.0224 15.797C57.7118 15.6873 57.3552 15.5978 56.9634 15.5274C56.5707 15.4571 56.1178 15.4261 55.5995 15.4261C54.7657 15.4261 54.013 15.5634 53.3382 15.8447C52.666 16.1227 52.0933 16.5229 51.6195 17.0478C51.1422 17.5694 50.7755 18.194 50.5169 18.9265C50.2623 19.6591 50.1342 20.477 50.1342 21.3829C50.1342 22.3557 50.2724 23.2239 50.5436 23.9858C50.8149 24.7384 51.1975 25.3839 51.6881 25.9038C52.1821 26.4254 52.7639 26.8247 53.4395 27.101C54.1177 27.3773 54.8603 27.5146 55.6615 27.5146Z" fill="white"/>
<path fill-rule="evenodd" clip-rule="evenodd" d="M64.4653 29.8283V17.8428H66.159C66.4537 17.8428 66.6597 17.8964 66.7777 18.006C66.8949 18.114 66.9736 18.3016 67.013 18.5653L67.1863 20.017C67.6149 19.2761 68.1181 18.6892 68.6907 18.2614C69.2692 17.8327 69.9172 17.6184 70.6331 17.6184C71.225 17.6184 71.7139 17.7557 72.1082 18.027L71.7306 20.1903C71.7055 20.331 71.657 20.4272 71.5816 20.4884C71.4996 20.547 71.3983 20.5729 71.2643 20.5729C71.1463 20.5729 70.9864 20.5486 70.7871 20.4951C70.5811 20.4373 70.3141 20.413 69.9792 20.413C69.3806 20.413 68.8674 20.5779 68.4371 20.907C68.0067 21.2385 67.6476 21.7241 67.3495 22.3637V29.8283H64.4653Z" fill="white"/>
<path fill-rule="evenodd" clip-rule="evenodd" d="M73.6484 29.8286H76.536V17.8431H73.6484V29.8286ZM76.9646 14.3478C76.9646 14.5981 76.9169 14.8317 76.8156 15.051C76.7143 15.267 76.582 15.4571 76.4154 15.6237C76.2455 15.7853 76.047 15.9159 75.8252 16.0147C75.5975 16.111 75.3555 16.1595 75.0976 16.1595C74.849 16.1595 74.6146 16.111 74.3927 16.0147C74.17 15.9159 73.9758 15.7853 73.8134 15.6237C73.6484 15.4571 73.5229 15.267 73.4232 15.051C73.3244 14.8317 73.2759 14.5981 73.2759 14.3478C73.2759 14.0899 73.3244 13.8497 73.4232 13.6286C73.5229 13.3984 73.6484 13.2033 73.8134 13.0384C73.9758 12.8751 74.17 12.7437 74.3927 12.6457C74.6146 12.5478 74.849 12.5034 75.0976 12.5034C75.3555 12.5034 75.5975 12.5478 75.8252 12.6457C76.047 12.7437 76.2455 12.8751 76.4154 13.0384C76.582 13.2033 76.7143 13.3984 76.8156 13.6286C76.9169 13.8497 76.9646 14.0899 76.9646 14.3478Z" fill="white"/>
<path fill-rule="evenodd" clip-rule="evenodd" d="M84.0023 27.7139C84.6009 27.7139 85.1107 27.5917 85.5293 27.3397C85.9513 27.0927 86.3473 26.7394 86.7232 26.2748V20.9032C86.3958 20.5064 86.04 20.2234 85.6524 20.061C85.2681 19.8961 84.8512 19.8157 84.4041 19.8157C83.9696 19.8157 83.577 19.8961 83.2237 20.061C82.8678 20.2234 82.5698 20.4704 82.3211 20.8019C82.0758 21.1377 81.89 21.5546 81.7552 22.0661C81.6263 22.576 81.5559 23.1763 81.5559 23.8712C81.5559 24.5727 81.6145 25.1646 81.7259 25.6502C81.8406 26.1425 82.0022 26.5352 82.2098 26.8424C82.4191 27.1513 82.6778 27.374 82.9817 27.5097C83.2865 27.6436 83.6264 27.7139 84.0023 27.7139ZM87.8451 29.8279C87.4691 29.8279 87.2272 29.6563 87.1091 29.3013L86.8705 28.1459C86.6219 28.4239 86.3632 28.6818 86.0886 28.9061C85.8173 29.1297 85.5226 29.3247 85.212 29.488C84.8947 29.6563 84.5515 29.7793 84.1923 29.8723C83.8323 29.9593 83.4397 30.0012 83.0177 30.0012C82.3638 30.0012 81.7636 29.8689 81.2177 29.5977C80.6727 29.3247 80.2022 28.9254 79.8095 28.4105C79.4169 27.8906 79.113 27.2526 78.9003 26.4858C78.6843 25.7239 78.5771 24.8524 78.5771 23.8712C78.5771 22.982 78.6977 22.1574 78.9397 21.3972C79.1816 20.632 79.5265 19.9681 79.9795 19.4105C80.4274 18.8462 80.9741 18.4067 81.602 18.0911C82.2332 17.7805 82.9407 17.618 83.731 17.618C84.4016 17.618 84.9734 17.7277 85.4448 17.9387C85.922 18.1564 86.3473 18.441 86.7232 18.7993V12.4675H89.604V29.8279H87.8451Z" fill="white"/>
<path fill-rule="evenodd" clip-rule="evenodd" d="M110.375 21.3794C110.375 20.4526 110.251 19.6196 109.999 18.8837C109.754 18.1503 109.397 17.5266 108.936 17.015C108.478 16.5052 107.92 16.1125 107.261 15.8446C106.601 15.5717 105.861 15.4335 105.034 15.4335H101.751V27.3269H105.034C105.861 27.3269 106.601 27.1905 107.261 26.9192C107.92 26.6446 108.478 26.252 108.936 25.7421C109.397 25.2364 109.754 24.6085 109.999 23.8734C110.251 23.1384 110.375 22.3062 110.375 21.3794ZM113.585 21.3794C113.585 22.6185 113.377 23.7554 112.968 24.7919C112.556 25.8267 111.974 26.7216 111.23 27.4667C110.481 28.2177 109.58 28.7962 108.527 29.2081C107.474 29.6209 106.31 29.8285 105.034 29.8285H98.5869V12.9353H105.034C106.31 12.9353 107.474 13.1429 108.527 13.5582C109.58 13.9768 110.481 14.5561 111.23 15.2996C111.974 16.0439 112.556 16.9347 112.968 17.9669C113.377 19.0051 113.585 20.1412 113.585 21.3794Z" fill="white"/>
<path fill-rule="evenodd" clip-rule="evenodd" d="M120.026 33.1216C119.94 33.3258 119.826 33.4782 119.689 33.5845C119.556 33.6875 119.346 33.7444 119.067 33.7444H116.915L119.159 28.9372L114.312 17.8408H116.833C117.069 17.8408 117.246 17.8936 117.37 18.0024C117.497 18.1138 117.589 18.2368 117.651 18.3791L120.212 24.5921C120.297 24.7972 120.369 25.0082 120.434 25.2217C120.495 25.4427 120.552 25.6604 120.595 25.8814C120.66 25.6503 120.726 25.4343 120.803 25.2217C120.876 25.014 120.951 24.7989 121.041 24.5812L123.448 18.3791C123.508 18.2218 123.613 18.0962 123.76 17.9898C123.901 17.8919 124.064 17.8408 124.241 17.8408H126.557L120.026 33.1216Z" fill="white"/>
<path fill-rule="evenodd" clip-rule="evenodd" d="M127.904 29.8284V17.8412H129.666C130.043 17.8412 130.292 18.0145 130.402 18.3645L130.605 19.3122C130.844 19.0661 131.099 18.835 131.367 18.6374C131.637 18.4315 131.92 18.2598 132.22 18.1075C132.522 17.9618 132.839 17.8488 133.182 17.7726C133.526 17.6905 133.902 17.6545 134.307 17.6545C134.961 17.6545 135.54 17.7642 136.047 17.9861C136.554 18.2088 136.976 18.5194 137.316 18.9204C137.653 19.3256 137.911 19.8028 138.086 20.3604C138.261 20.9155 138.35 21.5283 138.35 22.2006V29.8284H135.465V22.2006C135.465 21.4664 135.295 20.8987 134.955 20.4977C134.618 20.0975 134.108 19.8966 133.431 19.8966C132.932 19.8966 132.462 20.0104 132.03 20.2331C131.593 20.4617 131.181 20.7698 130.788 21.1591V29.8284H127.904Z" fill="white"/>
<path fill-rule="evenodd" clip-rule="evenodd" d="M144.507 28.028C144.802 28.028 145.077 28.0037 145.325 27.9493C145.573 27.8941 145.809 27.8137 146.031 27.704C146.254 27.5994 146.47 27.4654 146.676 27.3105C146.882 27.1515 147.091 26.9681 147.297 26.7513V24.7462C146.456 24.7462 145.757 24.7972 145.191 24.9052C144.629 25.0099 144.174 25.1438 143.83 25.3121C143.487 25.4754 143.245 25.6671 143.101 25.8873C142.957 26.1066 142.886 26.3452 142.886 26.6023C142.886 27.1138 143.034 27.4805 143.334 27.7007C143.633 27.9184 144.025 28.028 144.507 28.028ZM150.119 29.828H148.819C148.543 29.828 148.333 29.7878 148.177 29.7058C148.02 29.6221 147.906 29.4571 147.824 29.2085L147.568 28.3554C147.264 28.6283 146.97 28.8703 146.676 29.0729C146.384 29.2822 146.081 29.4521 145.77 29.5978C145.458 29.7351 145.125 29.8381 144.779 29.9084C144.425 29.9787 144.037 30.0147 143.608 30.0147C143.101 30.0147 142.634 29.9461 142.208 29.8088C141.78 29.6698 141.407 29.4689 141.1 29.1943C140.795 28.9188 140.553 28.5806 140.383 28.1737C140.21 27.7677 140.125 27.2955 140.125 26.7546C140.125 26.3042 140.246 25.8546 140.481 25.4101C140.723 24.9722 141.113 24.5729 141.67 24.2162C142.224 23.8612 142.957 23.5674 143.88 23.3338C144.799 23.0994 145.935 22.9805 147.297 22.9805V22.2756C147.297 21.466 147.127 20.869 146.793 20.4797C146.453 20.0896 145.959 19.8962 145.312 19.8962C144.847 19.8962 144.458 19.9523 144.147 20.0611C143.833 20.1708 143.564 20.2922 143.334 20.4278C143.101 20.5651 142.892 20.6857 142.699 20.797C142.502 20.905 142.285 20.9637 142.054 20.9637C141.857 20.9637 141.692 20.9067 141.555 20.8088C141.411 20.7091 141.299 20.5827 141.214 20.4345L140.688 19.5119C142.068 18.2494 143.729 17.6182 145.675 17.6182C146.374 17.6182 147.002 17.7329 147.552 17.9639C148.105 18.1925 148.57 18.5115 148.945 18.92C149.328 19.3336 149.616 19.8158 149.819 20.3902C150.018 20.9561 150.119 21.579 150.119 22.2588V29.828Z" fill="white"/>
<path fill-rule="evenodd" clip-rule="evenodd" d="M152.644 29.8284V17.8412H154.404C154.78 17.8412 155.022 18.0145 155.139 18.3645L155.329 19.257C155.535 19.0184 155.758 18.8074 155.99 18.6115C156.219 18.4164 156.463 18.2498 156.722 18.1075C156.984 17.9668 157.262 17.8571 157.563 17.7759C157.867 17.6956 158.194 17.6545 158.551 17.6545C159.306 17.6545 159.93 17.8571 160.418 18.264C160.905 18.6734 161.268 19.221 161.507 19.8966C161.697 19.4989 161.929 19.1573 162.212 18.876C162.491 18.588 162.799 18.3578 163.132 18.1795C163.469 17.9995 163.822 17.8689 164.202 17.7835C164.578 17.6972 164.957 17.6545 165.339 17.6545C166.002 17.6545 166.592 17.7558 167.103 17.9584C167.616 18.1585 168.049 18.4574 168.4 18.8467C168.754 19.2344 169.019 19.7116 169.202 20.2708C169.385 20.8318 169.474 21.4739 169.474 22.2006V29.8284H166.592V22.2006C166.592 21.4337 166.422 20.8594 166.087 20.4734C165.751 20.0875 165.261 19.8966 164.614 19.8966C164.319 19.8966 164.044 19.9485 163.792 20.0498C163.538 20.1478 163.315 20.2968 163.126 20.4868C162.936 20.676 162.785 20.9163 162.677 21.2026C162.563 21.494 162.514 21.8238 162.514 22.2006V29.8284H159.613V22.2006C159.613 21.3977 159.453 20.8108 159.132 20.4458C158.805 20.0783 158.331 19.8966 157.7 19.8966C157.285 19.8966 156.899 20.0012 156.535 20.2072C156.175 20.4131 155.839 20.6961 155.523 21.0528V29.8284H152.644Z" fill="white"/>
<path fill-rule="evenodd" clip-rule="evenodd" d="M172.034 29.8286H174.922V17.8414H172.034V29.8286ZM175.352 14.3444C175.352 14.5981 175.304 14.8317 175.203 15.046C175.102 15.267 174.968 15.4571 174.8 15.6186C174.63 15.7852 174.438 15.9125 174.212 16.0096C173.983 16.1076 173.741 16.1561 173.486 16.1561C173.235 16.1561 172.999 16.1076 172.779 16.0096C172.561 15.9125 172.361 15.7852 172.201 15.6186C172.034 15.4571 171.904 15.267 171.808 15.046C171.71 14.8317 171.661 14.5981 171.661 14.3444C171.661 14.0899 171.71 13.8479 171.808 13.6219C171.904 13.3984 172.034 13.2033 172.201 13.0384C172.361 12.8751 172.561 12.7437 172.779 12.6457C172.999 12.5478 173.235 12.5017 173.486 12.5017C173.741 12.5017 173.983 12.5478 174.212 12.6457C174.438 12.7437 174.63 12.8751 174.8 13.0384C174.968 13.2033 175.102 13.3984 175.203 13.6219C175.304 13.8479 175.352 14.0899 175.352 14.3444Z" fill="white"/>
<path fill-rule="evenodd" clip-rule="evenodd" d="M186.155 20.3738C186.07 20.4868 185.985 20.5714 185.903 20.6325C185.822 20.6961 185.701 20.7254 185.547 20.7254C185.397 20.7254 185.256 20.6811 185.116 20.5915C184.978 20.5011 184.808 20.4014 184.612 20.2884C184.419 20.1745 184.188 20.0749 183.922 19.9845C183.65 19.8932 183.316 19.8472 182.918 19.8472C182.41 19.8472 181.966 19.9418 181.587 20.1235C181.207 20.3068 180.887 20.5714 180.635 20.9121C180.38 21.2554 180.194 21.6723 180.069 22.1579C179.94 22.6435 179.88 23.1977 179.88 23.8105C179.88 24.4468 179.948 25.0228 180.086 25.5151C180.223 26.0166 180.416 26.4352 180.671 26.7743C180.931 27.1142 181.247 27.3687 181.609 27.5428C181.976 27.7161 182.388 27.8057 182.849 27.8057C183.31 27.8057 183.678 27.7504 183.964 27.6358C184.249 27.5227 184.488 27.3988 184.68 27.2615C184.877 27.1251 185.047 27.0028 185.191 26.8915C185.337 26.7751 185.495 26.7215 185.678 26.7215C185.907 26.7215 186.087 26.8094 186.203 26.9878L187.032 28.0393C186.711 28.4152 186.365 28.7266 185.992 28.9795C185.615 29.2331 185.227 29.4374 184.828 29.5848C184.426 29.7413 184.013 29.851 183.585 29.9088C183.156 29.9724 182.731 30.0017 182.309 30.0017C181.57 30.0017 180.873 29.8644 180.22 29.5848C179.562 29.3118 178.993 28.9091 178.506 28.38C178.022 27.8484 177.633 27.2004 177.351 26.4352C177.067 25.6666 176.927 24.7918 176.927 23.8105C176.927 22.9281 177.051 22.1152 177.306 21.3651C177.557 20.6091 177.929 19.9602 178.418 19.411C178.912 18.8643 179.52 18.4315 180.243 18.1225C180.969 17.8086 181.801 17.6545 182.745 17.6545C183.637 17.6545 184.422 17.7952 185.099 18.0849C185.773 18.3737 186.378 18.7873 186.914 19.3256L186.155 20.3738Z" fill="white"/>
<path fill-rule="evenodd" clip-rule="evenodd" d="M196.082 20.1743C196.004 20.2999 195.923 20.3903 195.837 20.4405C195.749 20.4933 195.645 20.5159 195.51 20.5159C195.369 20.5159 195.219 20.4765 195.059 20.4012C194.899 20.3233 194.719 20.2329 194.503 20.1366C194.293 20.0387 194.055 19.9516 193.787 19.8721C193.516 19.7967 193.202 19.7574 192.835 19.7574C192.266 19.7574 191.818 19.8779 191.491 20.119C191.167 20.361 191.001 20.6749 191.001 21.0668C191.001 21.3221 191.078 21.5381 191.252 21.7131C191.416 21.8864 191.641 22.0421 191.919 22.1777C192.194 22.3067 192.508 22.4323 192.858 22.5294C193.204 22.6365 193.564 22.7512 193.934 22.8776C194.297 23.0032 194.657 23.1405 195.01 23.3021C195.357 23.4595 195.667 23.6638 195.948 23.9091C196.223 24.1544 196.446 24.4474 196.612 24.7923C196.782 25.1356 196.867 25.5475 196.867 26.0314C196.867 26.6074 196.756 27.1382 196.547 27.6271C196.341 28.1136 196.033 28.5322 195.624 28.888C195.219 29.2413 194.719 29.5209 194.123 29.7176C193.528 29.9136 192.845 30.0149 192.076 30.0149C191.664 30.0149 191.258 29.9789 190.867 29.9002C190.471 29.8282 190.095 29.7252 189.731 29.5979C189.368 29.4623 189.031 29.3066 188.728 29.1283C188.425 28.9491 188.153 28.754 187.918 28.5414L188.582 27.4429C188.667 27.3107 188.767 27.2102 188.884 27.1399C189.002 27.0679 189.15 27.0319 189.33 27.0319C189.506 27.0319 189.676 27.0863 189.833 27.1859C189.996 27.2889 190.183 27.3986 190.392 27.5149C190.605 27.6288 190.85 27.7402 191.135 27.8415C191.416 27.9428 191.775 27.9938 192.217 27.9938C192.557 27.9938 192.848 27.9528 193.097 27.8691C193.342 27.7896 193.545 27.6799 193.705 27.5459C193.866 27.4162 193.979 27.2613 194.055 27.0863C194.13 26.9113 194.166 26.7296 194.166 26.5446C194.166 26.2642 194.081 26.0331 193.914 25.8548C193.747 25.6748 193.525 25.5199 193.25 25.3859C192.972 25.2562 192.655 25.1373 192.302 25.0343C191.946 24.9246 191.586 24.8116 191.213 24.6877C190.847 24.5646 190.481 24.4148 190.131 24.249C189.774 24.079 189.457 23.8681 189.182 23.6119C188.908 23.3549 188.687 23.0392 188.52 22.665C188.347 22.2899 188.265 21.842 188.265 21.3121C188.265 20.8198 188.363 20.3526 188.558 19.9081C188.75 19.4643 189.038 19.0776 189.417 18.7452C189.793 18.4153 190.265 18.1499 190.831 17.954C191.396 17.7514 192.047 17.6543 192.789 17.6543C193.614 17.6543 194.362 17.7883 195.043 18.062C195.717 18.3349 196.282 18.6949 196.736 19.1378L196.082 20.1743Z" fill="white"/>
<path fill-rule="evenodd" clip-rule="evenodd" d="M35.521 18.2504C33.6264 9.27805 23.6134 0.835629 16.7457 0.0578613V0.0586985C16.1881 0.412838 15.7243 0.855722 15.3501 1.37312C19.3511 1.744 22.844 4.41972 26.8567 8.71628C29.9736 12.0567 32.0583 17.3914 32.5698 23.0125C32.7758 25.2369 32.7322 27.5049 32.4166 29.7135C35.6332 26.1897 36.3498 22.1694 35.521 18.2504Z" fill="#F29100"/>
<path fill-rule="evenodd" clip-rule="evenodd" d="M32.5701 23.0129C32.776 25.2366 32.7325 27.5046 32.416 29.714C28.7608 33.8347 16.1457 35.8733 8.13779 35.2906V35.2873C6.92802 33.566 6.31183 31.6655 6.15527 29.6746C16.3307 31.5768 27.2253 28.5008 32.5701 23.0129Z" fill="#EA5B25"/>
<path fill-rule="evenodd" clip-rule="evenodd" d="M24.933 10.1188C27.2814 13.8561 26.81 20.5923 24.1954 24.4786L23.8614 24.3974C22.1091 23.6523 20.33 21.9268 18.7779 19.7116C24.0196 13.353 21.1162 8.52312 17.4475 7.53353C16.3525 7.23465 15.1904 7.27986 14.1548 7.73028C17.6769 6.05251 22.3377 6.27102 24.933 10.1188Z" fill="#0069B3"/>
<path fill-rule="evenodd" clip-rule="evenodd" d="M14.1553 7.73058C15.1901 7.28016 16.3522 7.23411 17.4481 7.53383C16.5272 8.39616 15.5627 9.38993 14.6049 10.485C14.3764 9.55486 14.2148 8.63644 14.1235 7.74565V7.74314C14.1369 7.73811 14.1436 7.73309 14.1553 7.73058Z" fill="#A9AA00"/>
<path fill-rule="evenodd" clip-rule="evenodd" d="M23.8615 24.3971C22.1092 23.652 20.3302 21.9265 18.778 19.7112C16.9202 17.0648 15.3839 13.7101 14.6045 10.4852C14.3759 9.55421 14.2143 8.63663 14.1239 7.745V7.74249C13.8661 5.22584 14.1984 2.95198 15.3496 1.373C15.7247 0.855603 16.1876 0.412719 16.7452 0.0594171V0.0577427C14.6689 -0.175839 12.8782 0.287975 11.691 1.65514H11.6851C10.7843 2.68909 10.2234 4.23709 10.1455 6.38788C9.99983 7.48881 9.89099 9.05858 9.8709 10.8544C9.85416 12.6092 9.9295 14.5741 10.1472 16.5399C10.9743 23.986 13.8803 31.3794 21.8597 26.7672C22.7631 26.2423 23.5467 25.447 24.1955 24.4791L23.8615 24.3971Z" fill="#62B8E8"/>
<path fill-rule="evenodd" clip-rule="evenodd" d="M6.15559 29.6746C5.82154 25.4057 7.60061 20.7232 10.1474 16.5405C9.92973 14.5739 9.85438 12.6089 9.87113 10.855C5.68759 14.7363 0.661823 22.2368 0.0598698 27.8939C-0.254084 30.8425 0.635033 33.2872 3.47987 34.4559C4.66954 34.8804 6.2795 35.155 8.1381 35.2906V35.2873C6.9275 33.566 6.31131 31.6655 6.15559 29.6746Z" fill="#A9AA00"/>
</svg>
